<?xml version="1.0" standalone="no"?>
<svg xmlns="http://www.w3.org/2000/svg" viewBox="0 0 1440 320">
<path fill="#ffffff" fill-opacity="1" d="m0,305.14154l34.3,-1.97803c34.3,-2.01518 102.7,-5.91553 171.7,-3.47317c68.3,2.47951 137,11.39459 205,12.38826c69,0.95652 138,-5.91553 206,-7.42924c68.7,-1.45799 137,2.44236 206,1.48585c68.4,-0.99366 137,-6.93705 206,-5.94339c68.1,0.95652 137,8.94295 205,11.88678c68.9,2.99956 137,0.95652 172,0l34,-0.99366l0,8.91509l-34.3,0c-34.3,0 -102.7,0 -171.7,0c-68.3,0 -137,0 -205,0c-69,0 -138,0 -206,0c-68.7,0 -137,0 -206,0c-68.4,0 -137,0 -206,0c-68.1,0 -137,0 -205,0c-68.9,0 -137,0 -172,0l-34,0l0,-14.85848l0,-0.00001z">
</path></svg>