<?xml version="1.0" standalone="no"?>
<svg xmlns="http://www.w3.org/2000/svg" viewBox="0 0 1440 320">
<path fill="#ffffff" fill-opacity="0.5" d="m0,309.593l48,-4.34167c48,-4.27663 144,-13.05754 240,-12.13066c96,0.86183 192,11.26883 288,10.407c96,-0.92687 192,-12.95997 288,-14.74868c96,-1.7887 192,6.99221 288,11.26883c96,4.34167 192,4.34167 240,4.34167l48,0l0,15.61051l-48,0c-48,0 -144,0 -240,0c-96,0 -192,0 -288,0c-96,0 -192,0 -288,0c-96,0 -192,0 -288,0c-96,0 -192,0 -240,0l-48,0l0,-10.407z">
</path></svg>