<?xml version="1.0" standalone="no"?>
<svg xmlns="http://www.w3.org/2000/svg" viewBox="0 0 1440 320">
<path fill="#ffffff" fill-opacity="1" d="m0,281.76675l30,0c30,0 90,0 150,-15.95043c60,-15.71148 120,-47.97078 180,-44.56563c60,3.16619 120,41.39944 180,38.23325c60,-3.40515 120,-47.61234 180,-51.01749c60,-3.16619 120,35.06706 180,60.5758c60,25.26979 120,38.41247 180,15.89069c60,-22.28282 120,-79.63269 180,-86.02481c60,-6.15316 120,38.05403 150,60.5758l30,22.28282l0,38.23325l-30,0c-30,0 -90,0 -150,0c-60,0 -120,0 -180,0c-60,0 -120,0 -180,0c-60,0 -120,0 -180,0c-60,0 -120,0 -180,0c-60,0 -120,0 -180,0c-60,0 -120,0 -180,0c-60,0 -120,0 -150,0l-30,0l0,-38.23325z">
</path></svg>