<?xml version="1.0" standalone="no"?>
<svg xmlns="http://www.w3.org/2000/svg" viewBox="0 0 1440 320">
<path fill="#ffffff" fill-opacity="0.5" d="m0,320l30,-17.6741c30,-17.40932 90,-53.15468 150,-81.15522c60,-28.26532 120,-49.44776 180,-31.77366c60,17.40932 120,74.33712 180,77.64688c60,3.30976 120,-45.67464 180,-60.03898c60,-14.09956 120,7.08288 180,24.75698c60,17.40932 120,31.97225 180,31.77366c60,0.19859 120,-14.36434 180,-28.26532c60,-13.90098 120,-28.4639 150,-35.282l30,-7.08288l0,127.09464l-30,0c-30,0 -90,0 -150,0c-60,0 -120,0 -180,0c-60,0 -120,0 -180,0c-60,0 -120,0 -180,0c-60,0 -120,0 -180,0c-60,0 -120,0 -180,0c-60,0 -120,0 -180,0c-60,0 -120,0 -150,0l-30,0z">
</path></svg>