<?xml version="1.0" standalone="no"?>
<svg xmlns="http://www.w3.org/2000/svg" viewBox="0 0 1440 320">
<path fill="#ffffff" fill-opacity="0.3" d="m0,245.77023l30,-9.27872c30,-9.27872 90,-27.83617 150,-43.32003c60,-15.2519 120,-28.01014 180,-12.3523c60,15.65784 120,58.57193 180,74.22977c60,15.65784 120,2.8996 180,-6.20515c60,-9.4527 120,-15.2519 180,-9.27872c60,6.20515 120,24.76259 180,12.41029c60,-12.58427 120,-55.49835 180,-49.52518c60,6.20515 120,61.87748 150,89.71364l30,27.83617l0,0l-30,0c-30,0 -90,0 -150,0c-60,0 -120,0 -180,0c-60,0 -120,0 -180,0c-60,0 -120,0 -180,0c-60,0 -120,0 -180,0c-60,0 -120,0 -180,0c-60,0 -120,0 -180,0c-60,0 -120,0 -150,0l-30,0l0,-74.22977z">
</path></svg>